<svg xmlns="http://www.w3.org/2000/svg" xmlns:xlink="http://www.w3.org/1999/xlink" version="1.1" x="0px" y="0px" viewBox="0 0 100 125" enable-background="new 0 0 100 100" xml:space="preserve"><g><path d="M5,95h90V67.5H5V95z M7.5,70h85v20h-85V70z"/><path d="M5,63.8h90V36.3H5V63.8z M7.5,38.8h85v20h-85V38.8z"/><path d="M5,32.5h90V5H5V32.5z M7.5,7.5h85v20h-85V7.5z"/><rect x="25" y="11.3" width="60" height="2.5"/><rect x="15" y="16.3" width="70" height="2.5"/><rect x="15" y="21.3" width="65" height="2.5"/><rect x="25" y="42.5" width="60" height="2.5"/><rect x="15" y="47.5" width="70" height="2.5"/><rect x="15" y="52.5" width="65" height="2.5"/><rect x="25" y="73.8" width="60" height="2.5"/><rect x="15" y="78.8" width="70" height="2.5"/><rect x="15" y="83.8" width="65" height="2.5"/></g><text x="0" y="115" fill="#000000" font-size="5px" font-weight="bold" font-family="'Helvetica Neue', Helvetica, Arial-Unicode, Arial, Sans-serif">Created by Arthur Shlain</text><text x="0" y="120" fill="#000000" font-size="5px" font-weight="bold" font-family="'Helvetica Neue', Helvetica, Arial-Unicode, Arial, Sans-serif">from the Noun Project</text></svg>