<svg xmlns:dc="http://purl.org/dc/elements/1.1/" xmlns:cc="http://creativecommons.org/ns#" xmlns:rdf="http://www.w3.org/1999/02/22-rdf-syntax-ns#" xmlns:svg="http://www.w3.org/2000/svg" xmlns="http://www.w3.org/2000/svg" xmlns:sodipodi="http://sodipodi.sourceforge.net/DTD/sodipodi-0.dtd" xmlns:inkscape="http://www.inkscape.org/namespaces/inkscape" version="1.1" x="0px" y="0px" viewBox="0 0 100 125"><g transform="translate(0,-952.36218)"><path style="opacity:1;color:#000000;fill:#000000;stroke:none;stroke-width:3.99999976000000010;stroke-linecap:round;stroke-linejoin:round;stroke-miterlimit:4;stroke-opacity:1;stroke-dasharray:none;stroke-dashoffset:0;marker:none;visibility:visible;display:inline;overflow:visible;enable-background:accumulate" d="M 8 18 L 8 72 L 18 72 L 18 82 L 32 72 L 92 72 L 92 18 L 8 18 z M 17.8125 31 A 2.0001999 2.0001999 0 0 1 18 31 L 82 31 A 2.0001999 2.0001999 0 1 1 82 35 L 18 35 A 2.0021961 2.0021961 0 1 1 17.8125 31 z M 17.8125 43 A 2.0001999 2.0001999 0 0 1 18 43 L 82 43 A 2.0001999 2.0001999 0 1 1 82 47 L 18 47 A 2.0021961 2.0021961 0 1 1 17.8125 43 z M 17.8125 55 A 2.0001999 2.0001999 0 0 1 18 55 L 52 55 A 2.0001999 2.0001999 0 1 1 52 59 L 18 59 A 2.0021961 2.0021961 0 1 1 17.8125 55 z " transform="translate(0,952.36218)"/></g><text x="0" y="115" fill="#000000" font-size="5px" font-weight="bold" font-family="'Helvetica Neue', Helvetica, Arial-Unicode, Arial, Sans-serif">Created by hans draiman</text><text x="0" y="120" fill="#000000" font-size="5px" font-weight="bold" font-family="'Helvetica Neue', Helvetica, Arial-Unicode, Arial, Sans-serif">from the Noun Project</text></svg>